{
  "accessors": [
    {
      "bufferView": 2,
      "componentType": 5126,
      "count": 65532,
      "max": [
        3.2699599266052246,
        3.387324094772339,
        3.384657144546509
      ],
      "min": [
        -3.4820897579193115,
        -3.387324810028076,
        -3.384657144546509
      ],
      "type": "VEC3"
    },
    {
      "bufferView": 2,
      "byteOffset": 786384,
      "componentType": 5126,
      "count": 65532,
      "max": [
        0.9993226528167725,
        0.9984552264213562,
        0.9999487996101379
      ],
      "min": [
        -0.9998388886451721,
        -0.9997611045837402,
        -0.9999487996101379
      ],
      "type": "VEC3"
    },
    {
      "bufferView": 1,
      "componentType": 5126,
      "count": 65532,
      "max": [
        1.3401646614074707,
        1.255630612373352
      ],
      "min": [
        -0.3401700556278229,
        -0.29460039734840393
      ],
      "type": "VEC2"
    },
    {
      "bufferView": 0,
      "componentType": 5125,
      "count": 98298,
      "type": "SCALAR"
    },
    {
      "bufferView": 2,
      "byteOffset": 1572768,
      "componentType": 5126,
      "count": 65532,
      "max": [
        3.1295993328094482,
        2.6855297088623047,
        2.98930287361145
      ],
      "min": [
        -2.910670757293701,
        -2.6998040676116943,
        -2.9893033504486084
      ],
      "type": "VEC3"
    },
    {
      "bufferView": 2,
      "byteOffset": 2359152,
      "componentType": 5126,
      "count": 65532,
      "max": [
        0.9997696876525879,
        0.9991471767425537,
        0.999396800994873
      ],
      "min": [
        -0.9998388290405273,
        -0.9991471171379089,
        -0.9997342824935913
      ],
      "type": "VEC3"
    },
    {
      "bufferView": 1,
      "byteOffset": 524256,
      "componentType": 5126,
      "count": 65532,
      "max": [
        1.1953459978103638,
        0.490459144115448
      ],
      "min": [
        -0.027675796300172806,
        -0.07316156476736069
      ],
      "type": "VEC2"
    },
    {
      "bufferView": 0,
      "byteOffset": 393192,
      "componentType": 5125,
      "count": 98298,
      "type": "SCALAR"
    },
    {
      "bufferView": 2,
      "byteOffset": 3145536,
      "componentType": 5126,
      "count": 65532,
      "max": [
        3.2252447605133057,
        3.2252447605133057,
        3.2252447605133057
      ],
      "min": [
        -3.129599094390869,
        -3.2252447605133057,
        -3.2252447605133057
      ],
      "type": "VEC3"
    },
    {
      "bufferView": 2,
      "byteOffset": 3931920,
      "componentType": 5126,
      "count": 65532,
      "max": [
        0.9997739195823669,
        0.9976011514663696,
        0.9997343420982361
      ],
      "min": [
        -0.9997344017028809,
        -0.9991471171379089,
        -0.9997343420982361
      ],
      "type": "VEC3"
    },
    {
      "bufferView": 1,
      "byteOffset": 1048512,
      "componentType": 5126,
      "count": 65532,
      "max": [
        1.1185874938964844,
        1.000000238418579
      ],
      "min": [
        -0.19534869492053986,
        -0.16281838715076447
      ],
      "type": "VEC2"
    },
    {
      "bufferView": 0,
      "byteOffset": 786384,
      "componentType": 5125,
      "count": 98298,
      "type": "SCALAR"
    },
    {
      "bufferView": 2,
      "byteOffset": 4718304,
      "componentType": 5126,
      "count": 65532,
      "max": [
        2.910670757293701,
        3.0060079097747803,
        2.6370151042938232
      ],
      "min": [
        -3.089602470397949,
        -3.0060079097747803,
        -2.9893007278442383
      ],
      "type": "VEC3"
    },
    {
      "bufferView": 2,
      "byteOffset": 5504688,
      "componentType": 5126,
      "count": 65532,
      "max": [
        0.9998388886451721,
        0.9990525841712952,
        0.9997343420982361
      ],
      "min": [
        -0.9997696280479431,
        -0.9991471767425537,
        -0.9997342824935913
      ],
      "type": "VEC3"
    },
    {
      "bufferView": 1,
      "byteOffset": 1572768,
      "componentType": 5126,
      "count": 65532,
      "max": [
        1.1044410467147827,
        0.635200560092926
      ],
      "min": [
        -0.1185891181230545,
        -0.16281823813915253
      ],
      "type": "VEC2"
    },
    {
      "bufferView": 0,
      "byteOffset": 1179576,
      "componentType": 5125,
      "count": 98298,
      "type": "SCALAR"
    },
    {
      "bufferView": 2,
      "byteOffset": 6291072,
      "componentType": 5126,
      "count": 65532,
      "max": [
        3.4820897579193115,
        3.032092332839966,
        3.384657144546509
      ],
      "min": [
        -3.4154396057128906,
        -3.38731050491333,
        -3.384657144546509
      ],
      "type": "VEC3"
    },
    {
      "bufferView": 2,
      "byteOffset": 7077456,
      "componentType": 5126,
      "count": 65532,
      "max": [
        0.9996743202209473,
        0.9997612833976746,
        0.9999487996101379
      ],
      "min": [
        -0.9994295835494995,
        -0.9997612833976746,
        -0.9999487996101379
      ],
      "type": "VEC3"
    },
    {
      "bufferView": 1,
      "byteOffset": 2097024,
      "componentType": 5126,
      "count": 65532,
      "max": [
        1.3401657342910767,
        1.000000238418579
      ],
      "min": [
        -0.3401699960231781,
        -0.2946002185344696
      ],
      "type": "VEC2"
    },
    {
      "bufferView": 0,
      "byteOffset": 1572768,
      "componentType": 5125,
      "count": 98298,
      "type": "SCALAR"
    },
    {
      "bufferView": 2,
      "byteOffset": 7863840,
      "componentType": 5126,
      "count": 65532,
      "max": [
        2.910670757293701,
        3.0060079097747803,
        2.9893033504486084
      ],
      "min": [
        -3.024580717086792,
        -2.5610179901123047,
        -2.9893033504486084
      ],
      "type": "VEC3"
    },
    {
      "bufferView": 2,
      "byteOffset": 8650224,
      "componentType": 5126,
      "count": 65532,
      "max": [
        0.99942946434021,
        0.9996556639671326,
        0.9999472498893738
      ],
      "min": [
        -0.9996182918548584,
        -0.9996557235717773,
        -0.9999472498893738
      ],
      "type": "VEC3"
    },
    {
      "bufferView": 1,
      "byteOffset": 2621280,
      "componentType": 5126,
      "count": 65532,
      "max": [
        1.1044405698776245,
        0.635200560092926
      ],
      "min": [
        -0.19534869492053986,
        -0.018077107146382332
      ],
      "type": "VEC2"
    },
    {
      "bufferView": 0,
      "byteOffset": 1965960,
      "componentType": 5125,
      "count": 98298,
      "type": "SCALAR"
    },
    {
      "bufferView": 2,
      "byteOffset": 9436608,
      "componentType": 5126,
      "count": 65532,
      "max": [
        3.024580478668213,
        2.5610179901123047,
        2.98930287361145
      ],
      "min": [
        -3.0194857120513916,
        -2.6998040676116943,
        -2.9893033504486084
      ],
      "type": "VEC3"
    },
    {
      "bufferView": 2,
      "byteOffset": 10222992,
      "componentType": 5126,
      "count": 65532,
      "max": [
        0.9993637800216675,
        0.9996556639671326,
        0.9999472498893738
      ],
      "min": [
        -0.9985292553901672,
        -0.9996556639671326,
        -0.9999472498893738
      ],
      "type": "VEC3"
    },
    {
      "bufferView": 1,
      "byteOffset": 3145536,
      "componentType": 5126,
      "count": 65532,
      "max": [
        1.1953459978103638,
        0.490459144115448
      ],
      "min": [
        -0.19534781575202942,
        -0.07316156476736069
      ],
      "type": "VEC2"
    },
    {
      "bufferView": 0,
      "byteOffset": 2359152,
      "componentType": 5125,
      "count": 98298,
      "type": "SCALAR"
    },
    {
      "bufferView": 2,
      "byteOffset": 11009376,
      "componentType": 5126,
      "count": 63996,
      "max": [
        3.4820897579193115,
        3.387324094772339,
        3.384657144546509
      ],
      "min": [
        -3.4820897579193115,
        -3.387324810028076,
        -3.384657144546509
      ],
      "type": "VEC3"
    },
    {
      "bufferView": 2,
      "byteOffset": 11777328,
      "componentType": 5126,
      "count": 63996,
      "max": [
        0.9996123313903809,
        0.9994790554046631,
        0.9996628761291504
      ],
      "min": [
        -0.9995055794715881,
        -0.9994790554046631,
        -0.9999472498893738
      ],
      "type": "VEC3"
    },
    {
      "bufferView": 1,
      "byteOffset": 3669792,
      "componentType": 5126,
      "count": 63996,
      "max": [
        1.3401657342910767,
        1.255630612373352
      ],
      "min": [
        -0.3401700556278229,
        -0.29460039734840393
      ],
      "type": "VEC2"
    },
    {
      "bufferView": 0,
      "byteOffset": 2752344,
      "componentType": 5125,
      "count": 95994,
      "type": "SCALAR"
    }
  ],
  "asset": {
    "extras": {
      "author": "tamminen (https://sketchfab.com/tamminen)",
      "license": "CC-BY-4.0 (http://creativecommons.org/licenses/by/4.0/)",
      "source": "https://sketchfab.com/3d-models/gemer-8e914bc2ba14443784bad702d80b377e",
      "title": "Gemer"
    },
    "generator": "Sketchfab-14.8.0",
    "version": "2.0"
  },
  "bufferViews": [
    {
      "buffer": 0,
      "byteLength": 3136320,
      "name": "floatBufferViews",
      "target": 34963
    },
    {
      "buffer": 0,
      "byteLength": 4181760,
      "byteOffset": 3136320,
      "byteStride": 8,
      "name": "floatBufferViews",
      "target": 34962
    },
    {
      "buffer": 0,
      "byteLength": 12545280,
      "byteOffset": 7318080,
      "byteStride": 12,
      "name": "floatBufferViews",
      "target": 34962
    }
  ],
  "buffers": [
    {
      "byteLength": 19863360,
      "uri": "scene.bin"
    }
  ],
  "materials": [
    {
      "name": "Scene_-_Root",
      "pbrMetallicRoughness": {
        "baseColorFactor": [
          0.16083986048138268,
          0.2743001826709099,
          0.8193024440314856,
          1.0
        ],
        "roughnessFactor": 0.08990503590106179
      }
    }
  ],
  "meshes": [
    {
      "name": "Object_0",
      "primitives": [
        {
          "attributes": {
            "NORMAL": 1,
            "POSITION": 0,
            "TEXCOORD_0": 2
          },
          "indices": 3,
          "material": 0,
          "mode": 4
        }
      ]
    },
    {
      "name": "Object_1",
      "primitives": [
        {
          "attributes": {
            "NORMAL": 5,
            "POSITION": 4,
            "TEXCOORD_0": 6
          },
          "indices": 7,
          "material": 0,
          "mode": 4
        }
      ]
    },
    {
      "name": "Object_2",
      "primitives": [
        {
          "attributes": {
            "NORMAL": 9,
            "POSITION": 8,
            "TEXCOORD_0": 10
          },
          "indices": 11,
          "material": 0,
          "mode": 4
        }
      ]
    },
    {
      "name": "Object_3",
      "primitives": [
        {
          "attributes": {
            "NORMAL": 13,
            "POSITION": 12,
            "TEXCOORD_0": 14
          },
          "indices": 15,
          "material": 0,
          "mode": 4
        }
      ]
    },
    {
      "name": "Object_4",
      "primitives": [
        {
          "attributes": {
            "NORMAL": 17,
            "POSITION": 16,
            "TEXCOORD_0": 18
          },
          "indices": 19,
          "material": 0,
          "mode": 4
        }
      ]
    },
    {
      "name": "Object_5",
      "primitives": [
        {
          "attributes": {
            "NORMAL": 21,
            "POSITION": 20,
            "TEXCOORD_0": 22
          },
          "indices": 23,
          "material": 0,
          "mode": 4
        }
      ]
    },
    {
      "name": "Object_6",
      "primitives": [
        {
          "attributes": {
            "NORMAL": 25,
            "POSITION": 24,
            "TEXCOORD_0": 26
          },
          "indices": 27,
          "material": 0,
          "mode": 4
        }
      ]
    },
    {
      "name": "Object_7",
      "primitives": [
        {
          "attributes": {
            "NORMAL": 29,
            "POSITION": 28,
            "TEXCOORD_0": 30
          },
          "indices": 31,
          "material": 0,
          "mode": 4
        }
      ]
    }
  ],
  "nodes": [
    {
      "children": [
        1
      ],
      "matrix": [
        1.0,
        0.0,
        0.0,
        0.0,
        0.0,
        2.220446049250313e-16,
        -1.0,
        0.0,
        0.0,
        1.0,
        2.220446049250313e-16,
        0.0,
        0.0,
        0.0,
        0.0,
        1.0
      ],
      "name": "Sketchfab_model"
    },
    {
      "children": [
        2
      ],
      "name": "root"
    },
    {
      "children": [
        3
      ],
      "matrix": [
        1.0,
        0.0,
        0.0,
        0.0,
        0.0,
        2.220446049250313e-16,
        1.0,
        0.0,
        0.0,
        -1.0,
        2.220446049250313e-16,
        0.0,
        0.0,
        0.0,
        0.0,
        1.0
      ],
      "name": "GLTF_SceneRootNode"
    },
    {
      "children": [
        4,
        5,
        6,
        7,
        8,
        9,
        10,
        11
      ],
      "name": "Cube_0"
    },
    {
      "mesh": 0,
      "name": "Object_4"
    },
    {
      "mesh": 1,
      "name": "Object_5"
    },
    {
      "mesh": 2,
      "name": "Object_6"
    },
    {
      "mesh": 3,
      "name": "Object_7"
    },
    {
      "mesh": 4,
      "name": "Object_8"
    },
    {
      "mesh": 5,
      "name": "Object_9"
    },
    {
      "mesh": 6,
      "name": "Object_10"
    },
    {
      "mesh": 7,
      "name": "Object_11"
    }
  ],
  "scene": 0,
  "scenes": [
    {
      "name": "Sketchfab_Scene",
      "nodes": [
        0
      ]
    }
  ]
}
