<svg width="512" height="512" viewBox="0 0 512 512" fill="none" xmlns="http://www.w3.org/2000/svg">
<path d="M174.578 205.556C175.738 206.788 177.114 208.26 178.578 209.847C182.627 214.237 187.307 219.47 189.936 222.942L189.957 222.97L189.98 222.996L321.945 374.037L322.972 375.213L323.611 373.787C324.707 371.337 325.562 368.836 326.174 366.283L326.181 366.252L326.186 366.221C326.629 363.677 326.991 361.117 327.273 358.541C327.983 352.059 327.783 345.638 326.671 339.281C325.562 332.936 323.685 326.846 321.042 321.014L321.039 321.008C319.427 317.522 317.576 314.208 315.486 311.066L315.444 311.003L315.394 310.948L302.322 296.544L302.311 296.531L302.299 296.52L184.162 174.608C185.591 173.59 186.855 173.261 188.057 172.95L188.135 172.93C189.154 172.666 190.289 172.373 191.282 171.543C192.317 170.678 193.088 169.337 193.69 167.201L193.733 167.05L193.727 166.893L192.728 166.93C193.727 166.893 193.727 166.893 193.727 166.893L193.727 166.892L193.727 166.89L193.727 166.882L193.725 166.85L193.721 166.722C193.717 166.609 193.711 166.442 193.704 166.227C193.69 165.797 193.671 165.175 193.65 164.405C193.608 162.865 193.558 160.736 193.528 158.383C193.469 153.66 193.491 148.082 193.808 144.518C194.213 139.962 195.151 134.124 195.992 129.404C196.412 127.049 196.806 124.98 197.095 123.5C197.24 122.76 197.358 122.168 197.441 121.76C197.482 121.557 197.514 121.4 197.535 121.294L197.56 121.173L197.566 121.143L197.568 121.135L197.568 121.134L197.568 121.133L197.563 121.132C197.563 121.132 197.563 121.132 197.563 121.132L197.568 121.133L197.599 120.985C200.199 110.491 204.729 100.624 211.197 91.3803L211.197 91.3803L211.204 91.3708C218.676 80.4253 228.286 71.1401 240.045 63.5153L285.371 34.1258C284.569 42.5 283.974 51.4856 284.098 58.9876C284.346 74.0429 287.685 94.9582 289.494 105.288L282.503 109.822C276.728 113.566 272.137 118.066 268.751 123.327C265.373 128.575 263.315 134.125 262.593 139.97C261.87 145.815 262.512 151.726 264.502 157.694C266.497 163.676 269.842 169.242 274.514 174.39L345.868 253.018L367.935 279.691L368.101 279.953L368.105 279.96C374.02 289.107 378.832 298.759 382.544 308.917L382.546 308.923C386.273 318.916 388.76 329.224 390.007 339.849L390.008 339.858L390.009 339.867C391.43 350.363 391.559 360.92 390.396 371.541C388.432 389.462 383.28 405.663 374.951 420.155C366.633 434.497 355.937 446.404 342.861 455.885C329.807 465.204 314.816 471.631 297.874 475.16C280.795 478.652 262.497 478.426 242.968 474.462C222.96 470.4 205.078 463.279 189.31 453.108C173.524 442.925 160.461 430.785 150.111 416.692C139.771 402.431 132.237 386.795 127.507 369.78C122.796 352.614 121.422 335.073 123.386 317.149C124.55 306.528 126.945 296.406 130.569 286.78C134.195 277.149 138.858 268.302 144.557 260.235L144.562 260.229C149.154 253.621 154.411 247.566 160.333 242.063L160.372 242.027L160.407 241.986C162.689 239.357 165.93 235.303 170.268 229.18C175.384 221.958 176.022 214.863 175.37 209.58C175.185 208.08 174.896 206.726 174.578 205.556ZM196.635 120.94L196.635 120.94L196.589 120.93L196.635 120.94ZM193.311 311.988L192.34 310.969L191.697 312.221C190.218 315.104 189.143 318.075 188.475 321.132C187.834 323.982 187.338 327.02 186.984 330.246C185.99 339.317 186.736 348.247 189.222 357.031C191.567 365.623 195.466 373.537 200.912 380.767L200.92 380.777C206.388 387.851 213.268 393.959 221.546 399.107C229.69 404.237 239.127 407.884 249.842 410.059C252.239 410.546 254.958 411.015 257.999 411.469L258.025 411.473L258.051 411.475C261.112 411.768 264.259 411.997 267.494 412.162L267.524 412.163L267.554 412.163C270.655 412.135 273.687 412.011 276.648 411.789C279.66 411.564 282.396 411.026 284.85 410.165L286.311 409.652L285.243 408.532L193.311 311.988ZM302.296 127.617C313.678 123.058 326.045 127.661 330.161 137.62C329.657 155.422 330.823 171.31 332.116 182.761C332.766 188.51 333.448 193.143 333.968 196.341C334.106 197.19 334.232 197.938 334.344 198.579C333.168 197.595 331.554 196.236 329.632 194.599C325.503 191.083 319.954 186.285 314.274 181.155C308.591 176.022 302.787 170.567 298.142 165.735C295.819 163.319 293.797 161.069 292.228 159.101C290.644 157.114 289.576 155.481 289.099 154.287C285.062 144.197 290.841 132.204 302.296 127.617Z" fill="black" stroke="white" stroke-width="2"/>
</svg>
