<svg viewBox="0 0 47 101" fill="none" xmlns="http://www.w3.org/2000/svg">
<path fill-rule="evenodd" clip-rule="evenodd" d="M23.7105 0.0149887C22.72 -0.0683557 20.8967 0.204408 19.6587 0.62113C18.4206 1.03785 16.5973 2.12891 15.6069 3.04569C14.6164 3.96248 13.4009 5.46268 12.9057 6.37947C12.4105 7.29626 11.8702 8.59189 11.7052 9.25864C11.5401 9.9254 11.3375 11.4256 11.255 12.5924C11.1556 13.9956 11.5113 15.6374 12.3054 17.4415C12.9657 18.9417 13.9787 20.6465 14.5564 21.2299C15.1342 21.8133 16.4172 22.6998 17.4077 23.1999C18.3981 23.7 19.7487 24.2455 20.409 24.4122C21.0693 24.5789 22.0822 24.7834 22.66 24.8668C23.2378 24.9501 24.6559 24.7455 25.8114 24.4122C26.9669 24.0788 28.7902 23.2605 29.8632 22.5937C30.9361 21.927 32.2867 20.6996 32.8645 19.8661C33.4423 19.0327 34.2526 17.3961 34.6653 16.2293C35.078 15.0624 35.4156 13.0849 35.4156 11.8347C35.4156 10.5846 35.0104 8.67523 34.5152 7.59175C34.02 6.50828 33.1421 5.07627 32.5644 4.40951C31.9866 3.74276 30.7711 2.71989 29.8632 2.13648C28.9553 1.55307 27.6047 0.871163 26.8618 0.62113C26.119 0.371097 24.7009 0.0983331 23.7105 0.0149887ZM19.8087 28.6552C16.0121 28.6552 12.3655 28.7915 11.7052 28.9582C10.9188 29.1567 10.2975 29.7317 9.90437 30.6251C9.57422 31.3752 8.76387 34.7848 8.10357 38.2019C7.44328 41.619 6.49787 46.3242 6.00265 48.6578C5.50743 50.9915 4.35942 56.6513 3.45152 61.2352C2.54362 65.8192 1.53068 70.9335 1.20053 72.6004C0.870384 74.2673 0.465205 76.8585 0.300132 78.3587C0.13506 79.8589 0 82.1092 0 83.3594C0 84.6096 0.405179 87.0644 0.900397 88.8147C1.39562 90.5649 2.40856 92.9516 3.15139 94.1184C3.89422 95.2852 5.24481 96.7854 6.15271 97.4522C7.06061 98.1189 8.6138 99.0054 9.60424 99.4221C10.5947 99.8389 12.2154 100.316 13.2058 100.483C14.1963 100.65 15.4793 100.854 16.0571 100.937C16.6348 101.021 17.1751 101.021 17.2576 100.937C17.3401 100.854 17.4752 100.854 17.5577 100.937C17.6403 101.021 18.9909 100.748 20.5591 100.331C22.1273 99.9146 24.6259 99.0281 26.1115 98.3614C27.5972 97.6946 29.6906 96.6036 30.7636 95.9368C31.8365 95.2701 33.7949 93.7699 35.1155 92.6031C36.4361 91.4362 38.3944 89.4587 39.4674 88.2085C40.5404 86.9584 42.0936 84.8444 42.9189 83.5109C43.7443 82.1774 44.9598 79.9271 45.6201 78.5103C46.2804 77.0934 46.8882 75.3886 46.9707 74.7219C47.086 73.7921 46.8762 73.4038 46.0703 73.055C45.4926 72.805 44.3446 72.5322 43.5192 72.4489C42.6938 72.3655 41.4783 72.4337 40.818 72.6004C39.9719 72.8141 39.263 73.5296 38.4169 75.025C37.7567 76.1918 36.6086 78.1011 35.8658 79.2679C35.123 80.4348 33.6373 82.2759 32.5644 83.3594C31.4914 84.4429 29.7356 85.9431 28.6626 86.6932C27.5897 87.4433 26.0365 88.3298 25.2111 88.6631C24.3858 88.9965 23.4403 89.3375 23.1102 89.4208C22.78 89.5042 22.1723 89.2314 21.7596 88.8147C21.3469 88.3979 20.9417 87.3069 20.8592 86.3901C20.7767 85.4733 20.9793 83.4958 21.3094 81.9956C21.6395 80.4954 22.0447 78.586 22.2098 77.7526C22.3749 76.9192 22.9826 73.7824 23.5604 70.782C24.1381 67.7816 25.2186 62.3945 25.9615 58.8107C26.7043 55.2269 28.0549 48.4078 28.9628 43.6572C29.8707 38.9065 30.7486 34.2013 30.9136 33.2012C31.0787 32.2011 31.1462 30.9055 31.0637 30.322L30.9136 29.2613L28.8127 28.9582C27.6572 28.7915 23.6054 28.6552 19.8087 28.6552Z" fill="#0350D4"/>
</svg>