<?xml version="1.0" encoding="UTF-8"?><svg id="Isolation_Mode" xmlns="http://www.w3.org/2000/svg" xmlns:xlink="http://www.w3.org/1999/xlink" viewBox="0 0 10.63 10.04"><defs><style>.cls-1{fill:#0c1919;}.cls-1,.cls-2,.cls-3,.cls-4,.cls-5,.cls-6,.cls-7,.cls-8,.cls-9,.cls-10,.cls-11,.cls-12,.cls-13,.cls-14,.cls-15,.cls-16,.cls-17,.cls-18,.cls-19,.cls-20,.cls-21,.cls-22,.cls-23,.cls-24,.cls-25,.cls-26,.cls-27{stroke-width:0px;}.cls-2{fill:#24312c;}.cls-3{fill:#6d6850;}.cls-4{fill:url(#linear-gradient);}.cls-5{fill:#767261;}.cls-6{fill:#585a3a;}.cls-7{fill:#9d9e81;}.cls-8{fill:#212021;}.cls-9{fill:#9e9973;}.cls-10{fill:#282707;}.cls-11{fill:#ada88f;}.cls-12{fill:#8a8971;}.cls-13{fill:#b6bddb;}.cls-14{fill:#0b0b11;}.cls-15{fill:#5e3e5e;}.cls-16{fill:#ced6f8;}.cls-17{fill:#3f3349;}.cls-18{fill:#4b5b47;}.cls-19{fill:#48452f;}.cls-20{fill:#8a76a3;}.cls-21{fill:#bea5dc;}.cls-22{fill:#32284b;}.cls-23{fill:#926e92;}.cls-24{fill:#38372b;}.cls-25{fill:#5f6856;}.cls-26{fill:#a3a9c4;}.cls-27{fill:#796f00;}</style><linearGradient id="linear-gradient" x1="8.35" y1="4.27" x2="4.12" y2="7.27" gradientUnits="userSpaceOnUse"><stop offset="0" stop-color="#999672"/><stop offset=".73" stop-color="#edc2ed"/></linearGradient></defs><path class="cls-8" d="m1.35,4.01c.07.16-.2.43.09.38-.06,1.29.46,1.4-.23,1.39l.1.22c.4-.34.65.17.19.38,0,0-.05.03-.15-.13-.04-.07-.21-.48-.23-.5-.05-.05-.1.02-.1.01-.24-.19-.05-.19.13-.21,0,0,.06.08.09.01.01-.03,0-.25-.01-.28-.02-.02-.37,0-.34.06h-.03c-.01-.07-.02-.16-.03-.23.17.11.11-.21.12-.32.06-.6.07-.3.19-.26.12.03.1-.12.06-.18-.06-.07-.18.12-.16-.22.01-.25.14-.49.26-.69-.18.61-.25.95.06.56Z"/><path class="cls-5" d="m.94,4.8c0,.12.05.44-.12.32-.04-.28-.2-1.1-.21-1.2,0-.21.23-.08.26-.16.01-.03-.24-.19.12-.03-.05.36-.04.71-.06,1.07Z"/><path class="cls-18" d="m.88,5.35c.06.2.3.06.26.21-.18.02-.37.01-.13.21,0,0,.05-.07.1-.01.02.02.19.42.23.5.1.16.14.12.15.13,0,0,0,.03.03.09.27.45,0,.07-.04.06-.03-.01-.15,0-.22,0,0,0,.02-.04-.12-.03-.28-.63-.23-.78-.29-1.14h.03Z"/><path class="cls-14" d="m9.64,5.06c-.07-.03-.22-.01-.26-.03-.14-.04-.17-.2-.23-.35-.03-.07-.04-.1-.06-.18.22.23.39.18.6-.03l.04.04c-.02.15-.09.41-.09.54Z"/><path class="cls-14" d="m9.4,5.44s.1.01.15.03c.02.08.09.21-.07.35-.04,0-.07-.02-.13-.03-.32-.06-.25-.17-.23-.42.04-.06.21.05.29.07Z"/><path class="cls-14" d="m10.34,3.65c-.13.04-.25.3,0,.21-.03,1.05-.07,2.16.29,3.15-.22.05-.29-.02-.31-.01-.06.01-.79.82-.92.92l.03,1.57-.03.03-1.65-.23c-.15.1-.28.21-.42.32-.03.03-.28.17-.26.19.28.09.26-.01.28-.01h2.37v.06c-.47.02-.94.09-1.41.12-.39.02-1.05-.02-1.35,0,0,0-.11.06-.1.09-.05,0-.02-.06-.04-.06-.07,0-.04.06-.06.06-.02,0,0-.06-.03-.06-.59-.02-1.59.03-2.53,0l.21-.06c.82-.01,1.63,0,2.45,0-.09-.13-.58-.12-.91-.18-.13-.02-.56-.18-.62-.18-.6.24-1.44.24-1.61.29-.22.07,0,.06.1.06,0,.02-.02.05-.03.06l-2.5-.15v-.06c.42-.04,1.02.12,1.11-.06.37.1.76.04,1.14.06-.03.11.07.06.04-.01-.03-.08-.2-.14-.26-.19-.07-.05-.31-.25-.37-.26-.17-.04-1.43.13-1.63.21-.12.02-.08-.06-.09-.06l.03-1.57c-.2-.11-.86-.88-.92-.89-.07-.02-.21.07-.34.01l.26-.73c-.07-.67.08-2.72.06-2.93-.04-.35-.59-.51.85-.28-.05.14-.15.58-.19.59-.45-.38-.7-.65-.42-.16-.38-.2-.12.45.06.42,0,.1.16.92.21,1.2.01.07.02.16.03.23.06.36,0,.51.29,1.14.33.74,1.19,1.72,1.89,2.14.57.34-.1-.12-.26-.26-.44-.38-.69-.8-1.04-1.24l.04-.04c.02.06.09.08.13.12.18.15.61.72,1.19,1.11.08.05,1.3.73,1.24.54-.11-.05-.19-.13-.26-.22-.07-.36.34.03.56.09,0,0,.07-.07.13,0,.2.22-.32.17-.15.26.12.07,1.07.08,1.26.06.59-.05,1.93-.48,2.4-.85.34-.27,1.11-1.31,1.13-1.42.06-.35-.35.38-.51.42-.19.06.04-.13-.13-.09,0-.02.03-.08.03-.09.18-.12.05-.35-.09-.44v-.03c.08-.14.13-.31.21-.44.2-.36.15.02.25,0,.1-.02-.11-.21.19-.32.06.01.09.04.13.03.16-.14.09-.27.07-.35-.02-.11.14-.13-.23-.18-.07-.11-.2-.11.06-.26.05.01.19,0,.26.03,0,.06,0,.17,0,.19.1.25.09-.6.18-.53-.08-.13.11-.51.12-.88.14-.04.14-.23.21-.35.03-.05.26-.18.13-.28-.02-.02-.14.07-.16.09-.12.08-.27.28-.29.29-.07.05-.06,0-.09,0l-.22-.53,1-.21c.07.03-.18.46-.19.51-.01.09.04.15.03.28Z"/><path class="cls-2" d="m1.96,7.17c.29.27.28.25.56.47.05.04.06.06.06.06.33.24.73.6,1.14.53.06.02.08.03.09.03.07.13.17.27.26.38.08.09.16.17.26.22.05.18-1.16-.49-1.24-.54-.58-.39-1.01-.96-1.19-1.11l.06-.03Z"/><path class="cls-2" d="m1.26,6.52c.2.1.34.25.5.41.07.07.13.17.21.23l-.06.03s-.11-.05-.13-.12l-.04.04c.35.45.6.87,1.04,1.24.17.14.83.6.26.26-.7-.42-1.56-1.4-1.89-2.14.13-.01.11.03.12.03Z"/><path class="cls-2" d="m8.52,8.75s.22.09.22.15c.08,0,.03-.08.04-.12.1-.04.2.24.16.26-.1.06-.88-.24-1.05-.26-.16.01-1.05.72-1.3.67.03-.07.03-.06.03-.06.65-.33,1.15-.78,1.9-.64Z"/><path class="cls-2" d="m1.79,8.87l.35-.15c.31.1.42-.06.63-.03.17.03,1.25.83,0,.09l-1.03.29s.04-.19.04-.21Z"/><path class="cls-14" d="m4.25,9.6c.04-.06.09-.22.09-.29.42.05.99.05.16.29-.01,0-.22.02-.25,0Z"/><path class="cls-16" d="m6.62,9.4s0-.01-.03.06c-.02.04-.11.29-.13.29l-.19-.42.4-.13s-.03.17-.04.21Z"/><path class="cls-12" d="m4.6,8.66s-.02.06.03.06c-.21-.05-.63-.45-.56-.09-.09-.11-.19-.25-.26-.38.18.08.67.25.79.41Z"/><path class="cls-16" d="m4.34,9.31c0,.08-.05.23-.09.29-.03.05-.05.14-.09.1l-.15-.47s.2.06.32.07Z"/><path class="cls-16" d="m8.79,8.78s.03.13-.04.12c0-.05-.21-.14-.22-.15.12-.04,0-.15.04-.18.03-.02.13.07.26,0,.05.12-.02.15-.04.21Z"/><path class="cls-16" d="m2.14,8.72l-.35.15c.02-.11.03-.21.04-.32.07.06.23.15.31.18Z"/><path class="cls-25" d="m9.07,6.23c.27.47-.18.78-.13.57,0-.03.21-.11.13-.57Z"/><path class="cls-21" d="m8.79,7.02c.02-.17-.05-.29-.09-.44.14.08.27.32.09.44Z"/><path class="cls-22" d="m9.55,5.47s-.12-.02-.15-.03c-.02-.05-.06-.1-.09-.15.37.04.21.07.23.18Z"/><path class="cls-14" d="m10.34,3.65c0,.07,0,.14,0,.21-.25.1-.13-.16,0-.21Z"/><path class="cls-13" d="m.75,6.41c.08,0,.14.15.03.18-.16.04-.12-.17-.03-.18Z"/><path class="cls-16" d="m9.94,6.41s.12.11.06.15c-.12.08-.17-.15-.06-.15Z"/><path class="cls-16" d="m4.45.14c-.02.06-.19.22-.06.21.06.01.13-.02.21-.03.05,0,.08-.02.15-.03.09.12-.56.2-.92.41-.07.04-.04.11-.04.12-.2.11-.38.17-.59.26-.29.13-.54.19-.57.21-.12.06-.39.4-.51.26.33-.34.45-.34-.03-.15-.11.05-.25.08-.35.15-.05-.4.5-.31.76-.42-.39-.2-.88-.3-1.22-.6l1.41.53c.3-.19.63-.3.95-.44.05-.02.06-.03.06-.03.06-.03.35-.1.37-.12.05-.06-.02-.12-.01-.18,0-.06-.04-.07-.03-.1.02-.08.52-.34.44-.04Z"/><path class="cls-14" d="m1.32,2.69c-.03.12-.08.21-.12.32-.16-.09-1.02-.07-1.07-.09-.01,0-.13-.18-.13-.19.03-.09,1.16-.02,1.32-.04Z"/><path class="cls-11" d="m1.73,1.96c-.08.11-.16.24-.23.35.01-.15-.09-.32-.23-.26,0-.16-.17-.44.12-.35.04.2.03.44.12.15.31-.04.19-.06.18-.23.04,0,.02-.03.06-.06.1-.07.24-.1.35-.15-.06.19-.35.36-.35.56Z"/><path class="cls-26" d="m6.27.7c-.06-.01-.11-.02-.18-.03-.21-.03-.43-.05-.64-.06.05-.14.33-.26.44-.32h.03c.33.06.34-.16.35.41Z"/><path class="cls-26" d="m4.86.29c-.08.17-.3.19-.15.29-.32.07-.62.18-.94.23,0,0-.02-.08.04-.12.36-.21,1.01-.29.92-.41.04,0,.08,0,.12,0Z"/><path class="cls-24" d="m6.09.67c.06,0,.11.02.18.03,1.48.3,2.33,1.19,3.08,2.43.02.19-.05.14-.06.15-.41-1.01-1.69-2.34-2.8-2.34-.14-.1-.27-.2-.45-.23l.06-.03Z"/><path class="cls-14" d="m9.36,2.69c2.67-.09.25.35.09.29-.04-.01-.17-.27-.09-.29Z"/><path class="cls-16" d="m8.9,1.52v.06c-.05-.12-.11-.03-.12-.03-.09-.01-.1-.02-.18-.06-.08-.04-.21-.19-.32-.21-.02-.03-.04-.05-.03-.09.37.04.53-.28.64.32Z"/><path class="cls-14" d="m1.49,2.31s-.04.16-.12.15c-.19-.55-.5.19-.59.04l.25-.37c.26.03.21-.08.22-.09.14-.05.25.12.23.26Z"/><path class="cls-14" d="m9.05,2.16l.13-.23c.1.05-.05.88.13-.06.11-.58.1.5-.06.6h-.06c-.04-.1-.09-.21-.15-.31Z"/><path class="cls-24" d="m8.61,1.49c.02.11.34.4.35.42.01.02-.01.09,0,.1-.16-.22-.59-.61-.67-.73.11.02.24.17.32.21Z"/><path class="cls-14" d="m9.51,2.16c.12-.02.37.28.37.34,0,.19-.47-.31-.37-.34Z"/><path class="cls-25" d="m5.92.29h-.03s-.05-.04.01-.09c.21-.16.63,0,.01.09Z"/><path class="cls-23" d="m4.6.26s0,.04,0,.06c-.08.01-.15.04-.21.03l.09-.21c.09-.14.1.04.12.12Z"/><path class="cls-8" d="m1.38,2.54s0,.06,0,.09c-.36-.12-.33-.38,0-.09Z"/><path class="cls-7" d="m9.4.43c-.03.09-.47,1.9-.15,1.38l.06.06c-.18.94-.03.11-.13.06l-.13.23s-.06-.1-.09-.15c-.01-.02.01-.09,0-.1-.01-.02-.33-.32-.35-.42.08.03.09.04.18.06.43.48.18.13.18.1,0-.01.09-.07.09-.09,0-.01-.05-.01,0-.21.02-.08.32-.67.15-.7.17-.01.1-.06.12-.1,0,0,.04.01.03-.09,0,0-.02,0,.06-.03Z"/><path class="cls-1" d="m8.9,1.52c-.11-.6-.28-.28-.64-.32-.04,0-.2.04-.07-.12.03-.04.82-.28.94-.32l-.22.76Z"/><path class="cls-8" d="m9.26,1.81c-.33.53.11-1.29.15-1.38.06-.02.11-.16.09.16,0,.12-.2,1.16-.23,1.22Z"/><path class="cls-24" d="m6.63.2c.62.62-.09.26-.1.22-.01-.03.09-.17.1-.22Z"/><path class="cls-19" d="m9.34.46c.01.1-.03.08-.03.09l-1.2.35v-.06q-.12.1-.23.21c-.2-.07-.58-.3-.81-.41.62-.22.94.16,1.23.15.35-.11.69-.23,1.04-.32Z"/><path class="cls-8" d="m8.11.9c-.13.3-.22.15-.23.15l.22-.21v.06Z"/><path class="cls-14" d="m9.45,2.39s.02.05.01.07c-.02.24-.43.3-.01-.07Z"/><path class="cls-2" d="m4.86.29s-.08,0-.12,0c-.07,0-.1.02-.15.03,0-.02,0-.04,0-.06.4-.08.29-.03.26.03Z"/><path class="cls-17" d="m4.39.34c-.13.01.04-.14.06-.21h.03l-.09.21Z"/><path class="cls-11" d="m5.01.9c-.1.06-.2.12-.28.21-.18,0-.63.04-.54.26-.85.26-1.8.92-2.2,1.73-.1,0-.08.11-.15,0,.01-.02.02-.04.03-.06.15-.24.27-.5.47-.7.13-.06,0-.08,0-.18.07-.02.05-.07.06-.09.1,0,.01.07.12.03.14-.05.11-.06.12-.06.31-.15.48-.45.76-.64.1.05.33-.02.37-.15.15.09.21-.09.32-.18.24.13.69-.24.92-.18Z"/><path class="cls-14" d="m3.31,7.87c-.09.06-.13.05-.18.09-.18-.09-.38-.16-.56-.26,0,0-.01-.02-.06-.06l.23-.06c.24.07.35.16.56.29Z"/><path class="cls-14" d="m1.79,6.7s-.03-.07-.12.04c.07.08.13.08.09.19-.16-.16-.29-.31-.5-.41.07,0,.19-.01.22,0,.04.02.31.39.04-.06.06-.06.1-.14.18-.18-.04.23.3.34.09.41Z"/><path class="cls-19" d="m2.11,1.55c-.13.13-.27.27-.38.41,0-.2.29-.37.35-.56.47-.19.36-.2.03.15Z"/><path class="cls-14" d="m1.44,4.39c-.29.05-.02-.22-.09-.38l.18-.07c-.04.15-.08.3-.09.45Z"/><path class="cls-2" d="m2.34,2.34c-.2.21-.32.46-.47.7-.1-.2.23-.52.38-.67.02-.02.09-.08.09-.03Z"/><path class="cls-26" d="m5.45.67v.03s-.07.05-.09.06c-.19-.06-.08.06-.13.09-.02.01-.06-.03-.22.06-.24-.07-.69.31-.92.18-.11.08-.17.26-.32.18-.04.13-.26.19-.37.15.12-.09,1.06-.59.37-.29-.16.07-.28.22-.5.26-.08.08-.47.53-.5.56-.04.03-.24-.03-.13.12,0,0,.02,0-.12.06l.16-.5c-.11.17-.21.26-.28.47-.05,0-.06.04-.06.09,0,.09.13.12,0,.18,0-.05-.07.01-.09.03-.22-.05-.74.64-.54.94.01,0,.11-.17.13-.21.07.11.04,0,.15,0-.74,1.5-.41,3.21.81,4.34.15.14.4.27.51.38.03.03.06.04.06.04,0,.03-.05,0-.06.01-.2-.13-.31-.22-.56-.29-.17-.05-.14.03-.31-.03-.04-.01-.36-.31-.37-.34.17-.35.06-.72-.01-.13-.17.05-.19-.22-.31-.15.04-.11-.01-.11-.09-.19.09-.11.09-.04.12-.04.02,0,.24.09.23-.1,0-.02-.2-.36-.22-.37-.03,0-.06.04-.1.06-.08.04-.12.11-.18.18-.04-.06-.03-.08-.03-.09.46-.21.21-.72-.19-.38l-.1-.22c.7.01.17-.11.23-1.39,0-.15.05-.31.09-.45l-.18.07c-.3.39-.23.05-.06-.56,0,0,.09-.07.04-.12-.07.04-.04.11-.04.12-.13.2-.25.44-.26.69-.02.34.1.15.16.22.05.05.06.21-.06.18-.12-.03-.13-.33-.19.26.01-.36,0-.71.06-1.07-.36-.16-.11,0-.12.03-.04.08-.27-.05-.26.16-.18.03-.44-.62-.06-.42-.28-.49-.02-.22.42.16.04,0,.14-.45.19-.59,0-.02.02-.04.03-.06.04-.11.08-.21.12-.32,0,0,.05,0,.06-.06,0-.03,0-.06,0-.09,0,0,.04.02,0-.09.08.01.1-.11.12-.15.07-.12.15-.25.23-.35.11-.14.26-.28.38-.41.13.14.39-.2.51-.26.03-.01.28-.07.57-.21-.17.18-.66.5-.57.53.05.02.38-.38.88-.59.17-.07.98-.3,1.2-.35.12-.03.63,0,.42-.12.23-.04.66-.28.18.01.08.04.04.07.15.1Z"/><path class="cls-2" d="m5.13.55c.21.11-.3.09-.42.12-.22.05-1.03.28-1.2.35-.49.21-.83.61-.88.59-.09-.03.4-.35.57-.53.2-.09.38-.15.59-.26.32-.05.62-.17.94-.23.14-.03.29,0,.41-.03Z"/><path class="cls-2" d="m1.86,2.42c.37-.09-.41.45-.31.72-.82.61.23-.7.31-.72Z"/><path class="cls-2" d="m1.51,3.22c.05-.04.34.48-.23.76-.08-.06.24-.61.23-.76Z"/><path class="cls-25" d="m2.26,2.37c-.15.15-.48.47-.38.67-.01.02-.02.04-.03.06-.02.03-.12.21-.13.21-.2-.3.32-.99.54-.94Z"/><path class="cls-18" d="m3.4,1.4c-.28.2-.45.49-.76.64-.1-.15.09-.09.13-.12.03-.02.42-.48.5-.56.22-.05.33-.19.5-.26.7-.3-.24.21-.37.29Z"/><path class="cls-14" d="m2.75,7.58l-.23.06c-.28-.22-.27-.19-.56-.47-.07-.07-.13-.16-.21-.23.12-.07.14.2.31.15.08-.58.19-.22.01.13,0,.02.33.32.37.34.17.06.13-.02.31.03Z"/><path class="cls-14" d="m1.79,6.7c.21-.07-.13-.18-.09-.41.04-.02.07-.07.1-.06.02,0,.22.34.22.37,0,.19-.22.1-.23.1Z"/><path class="cls-24" d="m2.42,1.72h.04c-.12.13-.35.51-.38.54-.39.35-.17-.11.34-.54Z"/><path class="cls-18" d="m2.52,2.1c-.11.04-.02-.03-.12-.03.07-.2.16-.3.28-.47l-.16.5Z"/><path class="cls-18" d="m2.34,2.16s0-.09.06-.09c0,.02.01.07-.06.09Z"/><path class="cls-15" d="m1.29,3.45s-.02-.08.04-.12c.05.04-.04.11-.04.12Z"/><path class="cls-14" d="m8.47,7.4c-.31.34-.51.5-.91.73l-.07-.15v.15s-.33.28-.57.29c-.25-.28-.26-.07-.06,0-.03.07-.13.09-.23.15l-.37-.15.16.26c-.36.09-.24,0-.29,0-.43-.02-.49-.06-.85-.15-.02,0-.04,0-.06,0-.7-.17.45.16-.21.18-.13-.02-.28-.09-.41-.06-.12-.16-.61-.33-.79-.41,0,0-.03,0-.09-.03-.16-.07-.33-.13-.5-.21.28-.07.76.21,1.04.26.09.02.07-.06.09-.06.3.05.61.19.92.12.62.08,1.17-.03,1.73-.29.75-.34,1.11-.82,1.19-.82.07,0,.11.14.28.18Z"/><path class="cls-23" d="m6.62,8.58s-.05.08-.21.12l-.16-.26.37.15Z"/><path class="cls-11" d="m6.91,8.43c0,.05-.02.01-.06,0-.2-.07-.19-.28.06,0Z"/><path class="cls-13" d="m7.56,8.14c-.13.07-.04-.03-.09,0v-.15q.05.07.09.15Z"/><path class="cls-2" d="m4.63,8.72s-.02-.05-.03-.06c.13-.04.28.04.41.06.23.04.37.14.21-.18.02,0,.04,0,.06,0,.13.17.65.21.85.15.06,0-.07.09.29,0,.15-.04.19-.11.21-.12.1-.06.2-.08.23-.15.04.01.05.05.06,0,.24-.02.53-.28.56-.29.05-.03-.04.07.09,0,.4-.23.6-.39.91-.73,0,0,.02.03.09-.06.04-.05.18-.18.21-.23.17-.04-.06.15.13.09.16-.05.58-.77.51-.42-.02.11-.78,1.15-1.13,1.42-.47.37-1.81.8-2.4.85-.19.02-1.13,0-1.26-.06-.17-.09.34-.04.15-.26-.06-.07-.13,0-.13,0Z"/><path class="cls-20" d="m6.12,8.69c-.2.07-.72.02-.85-.15.36.09.42.13.85.15Z"/><path class="cls-20" d="m5.21,8.55c.17.31.02.22-.21.18.66-.02-.49-.34.21-.18Z"/><path class="cls-2" d="m8.22,7.78c.08-.04.08.05.03.06,0,0-.06-.04-.03-.06Z"/><path class="cls-26" d="m6.03.7c.18.03.31.13.45.23,1.11,0,2.39,1.33,2.8,2.34-.02.05.07,0-.03.06-.05-.03-.06-.1-.09-.15-.05-.06-.09-.09-.15-.15-.06-.36-.66-1.12-1-1.26.01-.07-.03-.06-.03-.06-.1-.13-.25-.18-.38-.26-.3-.2-.69-.47-1.05-.45.06.05.11.12.18.16.16.29-.17-.09-.28-.15-.05-.02-.45-.04-.41-.18.55.13-.5-.23-.01-.15Z"/><path class="cls-25" d="m7.62,1.46c0,.07-.04.1-.09.15v-.03c-.14-.16-.7-.35-.79-.41-.07-.04-.12-.11-.18-.16.36-.02.76.25,1.05.45Z"/><path class="cls-7" d="m8,1.72c-.06.01,0,.05.03.06.03.22.07.09.21.25-.55.22.23-.2.41.88.4.39.42.4.38.13.05.05.1.08.15.15-.18-.09-.01.2.04.21.06.01.04-.06.04-.06.1-.05,0-.01.03-.06,0,0,.08.05.06-.15.05.08.07.16.12.23-.05.14.19.38.29.51-.11.7.09.26.03-.03,0-.01-.12-.17-.15-.22.04.01.06-.02.09-.03.03,0,.02.05.09,0,.06.3.31-.21.29-.29.03-.02.14-.11.16-.09.12.1-.11.23-.13.28-.06.12-.06.31-.21.35,0,.37-.2.75-.12.88-.08-.07-.07.77-.18.53,0-.02,0-.13,0-.19,0-.13.06-.39.09-.54l-.04-.04c-.22.21-.38.25-.6.03-.07-.29-.06-.54-.09-.66-.21-.88-.87-1.66-1.64-2.11.07-.03.12-.08.18-.13.04-.04.09-.07.09-.15.13.09.28.13.38.26Z"/><path class="cls-16" d="m9.81,3.6s.17-.21.29-.29c.01.08-.23.6-.29.29Z"/><path class="cls-2" d="m9.64,3.63s.14.21.15.22c.06.29-.14.73-.03.03-.1-.14-.34-.37-.29-.51.05.09.13.17.18.26Z"/><path class="cls-18" d="m9.02,3.04c.04.27.02.26-.38-.13-.18-1.08-.96-.66-.41-.88-.14-.16-.17-.03-.21-.25.33.14.94.9,1,1.26Z"/><path class="cls-14" d="m9.07,3.36c.41.14.24.31.28.4.09-.05.35.29.35.35.02.23-.48.88-.59-.18.21-.06.51.57.5.21-.02-.5-.66-.04-.54-.78Z"/><path class="cls-24" d="m9.17,3.19s.04.12.09.15c0,0,.02.07-.04.06-.06,0-.22-.3-.04-.21Z"/><path class="cls-18" d="m8.03,1.78s-.09-.05-.03-.06c0,0,.04,0,.03.06Z"/><path class="cls-17" d="m1.14,5.56c.04-.15-.2,0-.26-.21-.03-.06.32-.08.34-.06.02.03.03.25.01.28-.03.06-.08-.02-.09-.01Z"/><path class="cls-26" d="m3.13,7.96s-.01.01.09.06c.16.08.33.13.5.21-.41.07-.81-.28-1.14-.53.18.1.37.18.56.26Z"/><path class="cls-11" d="m6.09.67l-.06.03c-.48-.08.56.27.01.15-.04.14.36.15.41.18.11.05.44.43.28.15.1.06.65.25.79.41-.08,0-.12.13-.25.12-.16-.01-1.25-.88-3.09-.32-.09-.23.36-.27.54-.26.08-.09.18-.15.28-.21.16-.09.2-.05.22-.06.05-.02-.06-.15.13-.09-.5.31.19.03.22.03.17-.02.7.12.07-.09-.1-.03-.16-.01-.21-.03,0-.02,0-.05,0-.06.22,0,.43.03.64.06Z"/><path class="cls-16" d="m5.65.7c.62.2.1.07-.07.09-.03,0-.72.28-.22-.03.02-.01.08-.06.09-.06.04-.01.14,0,.21,0Z"/><path class="cls-18" d="m5.65.7c-.06,0-.16-.01-.21,0v-.03s.11,0,.21.03Z"/><path class="cls-26" d="m5.17.93h.01v.04h-.01s-.01.01-.03.01h-.01s0-.02.01-.03h.01s0-.02.01-.03Z"/><path class="cls-11" d="m3.72.52s-.08.05-.03.06c0,0,0,0-.06.03-.38.05-.72.19-1.11.18.35-.18,1.16-.6.95-.29.16-.02.28-.12.25.03Z"/><path class="cls-2" d="m4.04.29c0,.05.06.11.01.18-.02.02-.3.09-.37.12-.05,0-.02-.02.03-.06.15-.13.22-.32.32-.23Z"/><path class="cls-8" d="m2.52.78c.39.01.73-.13,1.11-.18-.32.14-.65.25-.95.44l-1.41-.53c.33.3.82.4,1.22.6-.27.11-.81.02-.76.42-.04.03-.02.06-.06.06-.02-.25-.09-.49-.12-.75-.53-.67.06.58-.06.98-.09.3-.08.05-.12-.15-.03-.14-.27-1.25-.22-1.29.35.15,1.01.37,1.36.38Z"/><path class="cls-21" d="m1.67,1.6c.01.17.13.19-.18.23.12-.4-.48-1.65.06-.98.03.25.1.49.12.75Z"/><path class="cls-26" d="m8.9,6.11c-.07.13-.12.3-.21.44-.36.59-.66.6-.15.79-.07.08-.08.05-.09.06-.17-.03-.21-.18-.28-.18-.07,0-.44.48-1.19.82-.42.06-.86.31-1.29.16,2.14-.27,2.7-1.91,2.84-2.02.19-.15.12.25.32-.22l.03.15Z"/><path class="cls-20" d="m9.37,5.03c-.26.15-.13.16-.06.26.03.05.06.1.09.15-.08-.02-.26-.13-.29-.07-.01.26-.08.37.23.42-.3.11-.09.3-.19.32-.1.02-.04-.36-.25,0l-.03-.15s.1-.3.12-.35c0-.01.05-.03.09-.19.07-.33-.04-.72.06-.75.06.15.1.31.23.35Z"/><path class="cls-14" d="m8.7,6.58c.04.15.11.27.09.44,0,0-.02.07-.03.09-.02.05-.16.18-.21.23-.51-.19-.21-.2.15-.79v.03Z"/><path class="cls-14" d="m7.53,1.57v.03c-.05.05-.1.1-.18.13.77.45,1.43,1.23,1.64,2.11.03.12.01.37.09.66.02.07.03.11.06.18-.1.03.01.41-.06.75-.03.16-.08.18-.09.19.17-.74.02-1.21-.29-1.85-.06-.13-.1-.2-.18-.32-.22-.37-.86-1.28-1.22-1.46,0,0-.08.03-.09.03,0,0,0-.05-.12-.09-.41-.13-1.12-.18-1.55-.29-.49-.03-1.63.2-2.02.41-.03.02,0,.07-.03.09-.89.51-.86.69-1.45,1.42-.13.45-.19.72-.21,1.19,0,.07,0,.14,0,.21,0,.08,0,.16,0,.23.08.84.62,1.67,1.26,2.2.14.11.26.2.41.29l-.21.15c-.11-.11-.37-.24-.51-.38-1.22-1.13-1.54-2.84-.81-4.34.4-.81,1.34-1.47,2.2-1.73,1.84-.56,2.93.31,3.09.32.13,0,.17-.12.25-.12Z"/><path class="cls-14" d="m5.27,8.34c-.31.07-.63-.06-.92-.12-.02,0,0,.08-.09.06-.28-.06-.76-.34-1.04-.26-.1-.04-.08-.06-.09-.06.05-.04.08-.02.18-.09,0,0,.06.01.06-.01,0,0-.03-.01-.06-.04l.21-.15c.23.13.47.26.72.35.1.04.99.32,1.04.32Z"/><path class="cls-4" d="m6.85,2.54s.3.1.34.06c.08.22.34.21.5.32.1.07.48.66.62.76.04.03.17.05.18.06.1.06-.01.17.22.03.31.64.47,1.11.29,1.85-.02.05-.1.32-.12.35-.2.47-.13.07-.32.22-.14.11-.71,1.75-2.84,2.02.43.15.86-.11,1.29-.16-.56.26-1.11.37-1.73.29-.05,0-.94-.28-1.04-.32-.25-.1-.49-.22-.72-.35-.15-.09-.27-.18-.41-.29.05-.1-.09-.32-.12-.45.25-.09.31.15.51.28.32.2.78.44,1.14.53.1.03,1.03.19.76.03-.11-.06-1.27.08-2.24-.97.15-.03.23-.04.38-.09.34-.11.85-.43,1.19-.62.05,2.01,1.95,1.15,2.94.4.04-.07.04-.75.03-.89,0-.14.02-.26-.03-.26-.46.2-.88.5-1.35.67-.07.02-.13.06-.21.06.01,0,.13-.11.15-.12.53-.25,1.09-.52,1.55-.88.04,0,.12.12.13.12.24-.04-.17-1.41-.83-2.14.1-.19-.58-.46-.26-.5Z"/><path class="cls-10" d="m8.52,3.45c-.34-.1-.33-.32-.35-.34-.06-.07-.1-.01-.1-.01-.05-.06-.05-.12-.1-.18-.03-.03-.04-.15-.45-.35-.13-.06-.34-.15-.47-.12-.03-.12-.23-.2-.31-.12-.08.07.01.15.12.21-.32.04.37.31.26.5-.32-.36-1.25-1.03-1.73-1.03l-.28-.15-.15.03c-.38.13-.76.24-1.1.47-.22.13-.54.4-.73.57,0,0,0,.09,0,.1-.02.02-.1,0-.35.26-.13.13-.27.24-.38.4-.34.49-.39,1.05-.56,1.04.01-.46.07-.74.21-1.19.59-.73.56-.91,1.45-1.42.03-.02,0-.07.03-.09.39-.21,1.53-.44,2.02-.41.43.12,1.14.16,1.55.29.11.04.11.09.12.09,0,0,.08-.03.09-.03.36.19,1,1.09,1.22,1.46Z"/><path class="cls-9" d="m2.4,5.32c.06.46.44,1.12.76,1.46.98,1.04,2.13.9,2.24.97.27.16-.66,0-.76-.03-.36-.09-.83-.32-1.14-.53-.2-.13-.27-.37-.51-.28.03.14.17.35.12.45-.64-.52-1.18-1.36-1.26-2.2.23-.01.37,0,.56.15Z"/><path class="cls-19" d="m2.78,3.3c.04.09-.14.22.06.25-.22.18-.11.2-.12.22-.06.14-.11.18-.18.38-.11.36-.14.36-.15.76l-.56.03c0-.07,0-.14,0-.21.16,0,.22-.55.56-1.04.11-.16.25-.26.38-.4Z"/><path class="cls-19" d="m7.97,2.92c.05.06.05.12.1.18,0,0,.04-.05.1.01.02.02.01.24.35.34.07.13.11.19.18.32-.23.15-.12.03-.22-.03,0,0-.14-.03-.18-.06-.13-.11-.52-.69-.62-.76-.16-.11-.42-.1-.5-.32-.03.04-.32-.05-.34-.06-.1-.06-.19-.13-.12-.21.16.05.34.25.51.18.21.14.51.34.72.41Z"/><path class="cls-27" d="m2.4,4.91c0,.12-.01.31,0,.41-.18-.15-.32-.16-.56-.15,0-.08,0-.16,0-.23l.56-.03Z"/><path class="cls-13" d="m5.39,2.01c.48,0,1.4.67,1.73,1.03.67.73,1.07,2.1.83,2.14-.01,0-.09-.11-.13-.12-.11-.01-1.77,1.09-1.93.81-.03-.06-.02-.49.01-.54.04-.06,1.18-.58,1.33-.69.03-.19-.03-.39-.03-.57,0-.11,0-.22,0-.32,0-.05,0-.1,0-.15,0-.12.03-.24-.04-.29-.41.27-.87.44-1.3.67.09-.09,0-.99-.1-.97-.08.02.05.26-.13.09.25-.29-.61-.54-.64-.48,0,.06.32.22.45.16-.12.12.05.1.07.13,0,0-.05.01,0,.07l-.03.03c-.14-.15-.42-.29-.63-.29.07-.11.12.04.09-.15-.13-.01-.24,0-.37.03-.11-.1-.41.07.12-.29.16-.11.51-.29.7-.29Z"/><path class="cls-26" d="m2.99,4.36c-.09.4-.14.91-.07,1.32-.04-.2,1.68-1.1,1.79-1.11.17-.01-.01.09-.01.1,0,.07.19.05.18.13-.44.24-.88.49-1.33.7-.07.04-.03.09-.04.15-.01.05,0,.14,0,.21,0,.06,0,.12,0,.18,0,.21-.03.49.06.67-.15.05-.23.06-.38.09-.32-.34-.7-1.01-.76-1.46-.01-.1,0-.29,0-.41.44-.13.35-.57.59-.56Z"/><path class="cls-19" d="m5.39,2.01c-.19,0-.54.18-.7.29-.02-.17-.34.14-.37.15-.01,0,0-.06-.25.06l-.21-.15c.33-.23.72-.33,1.1-.47l.15-.03.28.15Z"/><path class="cls-19" d="m4.01,2.83c-.1.05-.34.24-.47.32-.12.08-.24.15-.35.23-.16.12-.32.23-.47.38,0-.02-.1-.04.12-.22-.19-.03-.02-.16-.06-.25.26-.27.33-.25.35-.26l.21-.03c.15.21.43-.22.67-.18Z"/><path class="cls-19" d="m4.07,2.51c-.06.03-.14.11-.28.09-.11.21-.39.14-.45.41l-.21.03s0-.09,0-.1c.19-.17.51-.44.73-.57l.21.15Z"/><path class="cls-19" d="m7.97,2.92c-.2-.07-.5-.27-.72-.41-.17.07-.35-.13-.51-.18.08-.08.28,0,.31.12.13-.03.34.06.47.12.42.2.42.32.45.35Z"/><path class="cls-7" d="m3.13,3.86c0,.08-.03.15-.03.23,0,0,0,.02,0,.03-.07-.01-.1.16-.12.23-.24-.01-.15.43-.59.56,0-.4.03-.41.15-.76l.59-.29Z"/><path class="cls-27" d="m3.19,3.51c-.09.1-.05.24-.06.35l-.59.29c.06-.2.12-.24.18-.38.14-.15.3-.26.47-.38v.12Z"/><path class="cls-2" d="m7.21,4.06c-.07.07-.19.1-.26.15,0-.01-.13,0-.13,0-1.12.52-2.24,1.05-3.32,1.64,0-.07-.01-.15,0-.21.95-.41,1.88-.89,2.8-1.38.04-.02.17-.03.18-.03.06-.03.03-.1.06-.12.02-.01.07,0,.28-.12.14-.08.28-.17.41-.26,0,.11,0,.22,0,.32Z"/><path class="cls-18" d="m6.94,4.21c-1.13.65-2.34,1.14-3.46,1.82,0-.06,0-.12,0-.18,1.09-.59,2.2-1.12,3.32-1.64,0,0,.13-.01.13,0Z"/><path class="cls-24" d="m7.7,5.59c-.55.35-1.62,1.1-2.24.64-.18-.13-.21-.26-.19-.47.26.32.45.44.85.29.07,0,.14-.03.21-.06.06.33,1.2-.38,1.35-.67.05,0,.02.13.03.26Z"/><path class="cls-6" d="m6.33,6c.47-.17.89-.48,1.35-.67-.15.3-1.28,1-1.35.67Z"/><path class="cls-14" d="m7.82,5.06c-.47.35-1.02.63-1.55.88-.37.13-.73-.06-1.01-.29-.04.04.02.06.01.12-.02.21,0,.33.19.47.62.45,1.69-.3,2.24-.64,0,.14,0,.82-.03.89-1,.76-2.9,1.61-2.94-.4-.33.19-.84.5-1.19.62-.09-.18-.06-.46-.06-.67,1.11-.68,2.33-1.17,3.46-1.82.08-.04.19-.07.26-.15,0,.18.06.38.03.57-.16.11-1.29.62-1.33.69-.03.05-.05.48-.01.54.16.28,1.83-.82,1.93-.81Z"/><path class="cls-16" d="m6.27,5.94s-.13.11-.15.12c-.4.15-.59.03-.85-.29,0-.06-.06-.08-.01-.12.28.23.64.42,1.01.29Z"/><path class="cls-10" d="m5.08,5.73c-.21.54.36.95.85.88-.04.17-.64-.01-.81-.22-.16-.2-.2-.44-.04-.66Z"/><path class="cls-26" d="m7.21,3.6c-.18.09-.35.2-.53.29-.29.15-.59.26-.88.41,0-.14.14-.13-.03-.23,0,0,.06-.08.09-.09.43-.23.9-.4,1.3-.67.07.05.04.17.04.29Z"/><path class="cls-3" d="m4.69,2.31c-.53.36-.22.19-.12.29-.18.04-.39.15-.56.23-.24-.05-.52.39-.67.18.06-.27.35-.2.45-.41.14.02.22-.06.28-.09.25-.11.24-.05.25-.06.02-.01.34-.31.37-.15Z"/><path class="cls-18" d="m7.21,3.6s0,.1,0,.15c-.13.09-.27.18-.41.26-.18.01-.06-.01-.12-.12.18-.09.35-.2.53-.29Z"/><path class="cls-13" d="m4.77,3.98c.15.64-.18.7.26.47.2-.1.39-.22.59-.32.09-.05.14-.05.15-.06.17.11.03.09.03.23-.32.16-.63.33-.94.5.01-.09-.18-.06-.18-.13,0-.01.19-.12.01-.1-.11,0-1.83.91-1.79,1.11-.06-.41-.02-.91.07-1.32.02-.07.04-.24.12-.23,0,.19,0,.36.03.56,0,0-.05.03-.03.13.55-.22,1.1-.58,1.67-.83Z"/><path class="cls-18" d="m6.8,4.01c-.21.13-.26.11-.28.12-.03.01,0,.08-.06.12,0,0-.14,0-.18.03-.91.49-1.85.97-2.8,1.38,0-.05-.02-.11.04-.15.45-.21.89-.46,1.33-.7.31-.17.62-.34.94-.5.29-.15.59-.26.88-.41.06.1-.06.13.12.12Z"/><path class="cls-11" d="m5.48,3.01c.08.09.18.26.21.38-.2.13-.25-.25-.57-.38-.12,0-.24,0-.37,0-.03,0-.06,0-.09,0-.51,0-.67.13-1.11.15.13-.08.37-.27.47-.32.17-.09.37-.2.56-.23.12-.02.24-.04.37-.03.03.19-.02.04-.09.15.21,0,.49.14.63.29Z"/><path class="cls-14" d="m5.62,3.1c.18.17.05-.07.13-.09.1-.02.19.87.1.97-.02.01-.08.08-.09.09,0,0-.05,0-.15.06,0-.08.05-.21.06-.26,0-.09,0-.23,0-.32,0-.05,0-.1,0-.15-.02-.12-.12-.29-.21-.38l.03-.03s.1.1.12.12Z"/><path class="cls-26" d="m5.62,3.1s-.11-.11-.12-.12c-.05-.06,0-.07,0-.07-.03-.03-.19-.01-.07-.13-.14.05-.45-.1-.45-.16.04-.06.89.2.64.48Z"/><path class="cls-7" d="m4.66,3.01c-.27.15-.58.24-.86.38-.38.19-.67.58-.6.12v-.12c.12-.09.23-.16.35-.23.45-.02.6-.15,1.11-.15Z"/><path class="cls-14" d="m5.01,3.51c.05.09.06.3.06.41,0,.18-.03.35-.03.53-.44.23-.12.17-.26-.47,0-.04.02-.12-.01-.15-.57.21-1.11.53-1.63.85-.02-.19-.04-.36-.03-.56,0,0,0-.02,0-.03.03,0,.1-.07.12-.09,0,.02,0,.09.01.09.1,0,1.49-1.07,1.77-.59Z"/><path class="cls-8" d="m4.75,3.01s.03.06.03.06c-.1.01-1.36.74-1.55.94-.02.02-.09.09-.12.09,0-.08.02-.16.03-.23.01-.12-.03-.25.06-.35-.07.46.22.07.6-.12.28-.14.59-.23.86-.38.03,0,.06,0,.09,0Z"/><path class="cls-25" d="m5.68,3.39s0,.1,0,.15c-.29.11-.45-.06-.67-.03-.28-.49-1.67.59-1.77.59-.02,0-.01-.07-.01-.09.19-.2,1.45-.93,1.55-.94.52.32.29.43.64.31-.14-.2-.38-.34-.64-.31,0,0-.03-.05-.03-.06.12,0,.24,0,.37,0,.32.13.37.52.57.38Z"/><path class="cls-24" d="m5.68,3.86c0,.05-.06.19-.06.26-.2.11-.39.22-.59.32,0-.18.03-.35.03-.53l.62-.06Z"/><path class="cls-19" d="m5.68,3.54c0,.09,0,.24,0,.32l-.62.06c0-.11,0-.32-.06-.41.22-.03.38.14.67.03Z"/><path class="cls-12" d="m4.77,3.98c-.57.25-1.12.62-1.67.83-.02-.1.03-.13.03-.13.52-.32,1.05-.64,1.63-.85.03.03,0,.11.01.15Z"/><path class="cls-11" d="m4.77,3.07c.27-.03.51.11.64.31-.35.13-.13,0-.64-.31Z"/></svg>