<svg width="331" height="758" viewBox="0 0 331 758" fill="#d1d1d1" xmlns="http://www.w3.org/2000/svg">
  <path d="M164.547 266.003C116.147 266.303 76.2474 306.203 75.4474 356.203C74.7474 398.603 74.6474 441.103 75.5474 483.603C76.4474 533.303 116.947 573.203 165.247 573.303C213.547 573.403 253.747 533.803 255.247 483.903C255.847 462.703 255.347 441.403 255.347 420.203C255.347 399.003 255.747 377.703 255.247 356.503C254.047 305.503 213.847 265.603 164.547 266.003Z" />
  <path d="M277.047 608.103C311.047 576.303 329.147 537.103 330.347 490.303C330.647 480.903 327.647 472.703 318.547 468.803C310.647 465.603 302.447 466.003 295.647 472.003C288.747 478.103 289.547 486.503 288.947 494.603C284.547 559.203 230.847 616.003 171.847 618.603C105.947 621.503 46.0474 564.603 41.9474 494.403C40.9474 478.903 38.0474 466.203 19.2474 467.403C-0.152636 468.703 -0.952636 483.303 0.447364 497.703C7.24736 566.803 43.8474 613.903 106.847 642.103C119.947 647.903 140.047 643.703 145.347 658.503C150.247 672.403 145.947 689.403 146.647 705.003C147.147 714.403 143.347 716.603 134.747 716.403C114.147 715.903 93.4474 716.303 72.8474 716.103C57.9474 715.903 48.4474 721.603 48.7474 737.703C48.9474 753.003 58.4474 757.703 72.3474 757.603C103.047 757.303 133.647 757.503 164.247 757.503C196.147 757.503 227.947 757.403 259.847 757.503C273.247 757.603 281.447 751.903 281.747 737.803C282.047 723.003 274.047 716.203 259.647 716.103C250.247 716.003 240.947 716.503 231.547 716.003C216.147 715.203 195.247 723.103 186.947 712.803C179.247 703.203 185.247 683.003 183.847 667.603C182.847 655.903 187.347 651.403 198.447 649.303C228.647 643.503 254.747 629.003 277.047 608.103Z" />
  <path d="M241.996 40.6076C242.193 29.7897 234.531 30.9917 225.888 31.1419C217.245 31.2922 207.619 28.6628 208.012 40.8329C209.19 67.1264 208.405 93.495 208.405 119.788C208.405 146.533 208.994 173.352 208.11 200.096C207.717 211.515 217.245 208.66 225.102 208.735C233.156 208.811 241.996 211.064 241.898 199.871C241.309 146.758 241.211 93.7203 241.996 40.6076Z" />
  <path d="M121.996 10.1473C122.193 -1.27831 114.531 -0.0087815 105.888 0.149907C97.2445 0.308596 87.6188 -2.46849 88.0116 10.3853C89.1903 38.1559 88.4045 66.0059 88.4045 93.7765C88.4045 122.023 88.9939 150.349 88.1099 178.596C87.717 190.656 97.2445 187.641 105.102 187.721C113.156 187.8 121.996 190.18 121.898 178.358C121.309 122.261 121.211 66.2439 121.996 10.1473Z" />
  <path d="M61.9963 64.4799C62.1927 59.4356 54.5314 59.9961 45.888 60.0662C37.2445 60.1362 27.6188 58.9102 28.0116 64.585C29.1903 76.8454 28.4045 89.1409 28.4045 101.401C28.4045 113.872 28.9939 126.378 28.1099 138.848C27.717 144.173 37.2445 142.842 45.1022 142.877C53.1563 142.912 61.9963 143.963 61.8981 138.743C61.3087 113.977 61.2105 89.246 61.9963 64.4799Z" />
  <path d="M181.996 25.0963C182.193 15.9801 174.531 16.993 165.888 17.1196C157.245 17.2462 147.619 15.0305 148.012 25.2862C149.19 47.4436 148.405 69.6643 148.405 91.8217C148.405 114.359 148.994 136.959 148.11 159.497C147.717 169.119 157.245 166.714 165.102 166.777C173.156 166.84 181.996 168.74 181.898 159.307C181.309 114.549 181.211 69.8542 181.996 25.0963Z" />
  <path d="M301.996 63.1845C302.193 59.5988 294.531 59.9972 285.888 60.047C277.245 60.0968 267.619 59.2253 268.012 63.2592C269.19 71.9745 268.405 80.7146 268.405 89.4299C268.405 98.2945 268.994 107.184 268.11 116.049C267.717 119.834 277.245 118.887 285.102 118.912C293.156 118.937 301.996 119.684 301.898 115.974C301.309 98.3692 301.211 80.7893 301.996 63.1845Z" />
</svg>
