<svg width="65" height="62" viewBox="-20 0 85 62" fill="none" xmlns="http://www.w3.org/2000/svg">
<path d="M0 46H16V62H0V46Z" fill="#2A3378"/>
<path d="M0 27H16V43H0V27Z" fill="#2A3378"/>
<path d="M0 8H16V24H0V8Z" fill="#2A3378"/>
<path d="M19 46H35V62H19V46Z" fill="#2A3378"/>
<path d="M19 27H35V43H19V27Z" fill="#2A3378"/>
<path d="M19 8H35V24H19V8Z" fill="#2A3378"/>
<path d="M38 46H54V62H38V46Z" fill="#2A3378"/>
<path d="M38 27H54V43H38V27Z" fill="#EE8D1D"/>
<path d="M52.4219 0L64.5634 10.4204L54.143 22.5619L42.0015 12.1415L52.4219 0Z" fill="#EE8D1D"/>
</svg>
