<?xml version="1.0" encoding="UTF-8"?><svg id="Layer_2" xmlns="http://www.w3.org/2000/svg" viewBox="0 0 3368 975.36"><defs><style>.cls-1{stroke-width:10px;}.cls-1,.cls-2,.cls-3{fill:none;stroke:#101018;stroke-miterlimit:10;}.cls-2{stroke-width:16px;}.cls-3{stroke-width:12px;}</style></defs><g id="Image_Placeholders"><g id="Square_3"><polygon id="_YOUR_IMAGE_HERE_" class="cls-1" points="321 386.46 163 295.24 5 386.46 5 568.9 163 660.12 321 568.9 321 386.46"/><polygon id="_YOUR_IMAGE_HERE_-2" class="cls-3" points="1091.89 229.68 787.94 54.2 484 229.68 484 580.64 787.94 756.12 1091.89 580.64 1091.89 229.68"/><polygon id="_YOUR_IMAGE_HERE_-3" class="cls-2" points="1465 396.46 1307 305.24 1149 396.46 1149 578.9 1307 670.12 1465 578.9 1465 396.46"/><polygon id="_YOUR_IMAGE_HERE_-4" class="cls-2" points="488 682.46 330 591.24 172 682.46 172 864.9 330 956.12 488 864.9 488 682.46"/><polygon id="_YOUR_IMAGE_HERE_-5" class="cls-1" points="1298 692.46 1140 601.24 982 692.46 982 874.9 1140 966.12 1298 874.9 1298 692.46"/><polygon id="_YOUR_IMAGE_HERE_-6" class="cls-2" points="1652 692.46 1494 601.24 1336 692.46 1336 874.9 1494 966.12 1652 874.9 1652 692.46"/><polygon id="_YOUR_IMAGE_HERE_-7" class="cls-2" points="1989 100.46 1831 9.24 1673 100.46 1673 282.9 1831 374.12 1989 282.9 1989 100.46"/><polygon id="_YOUR_IMAGE_HERE_-8" class="cls-1" points="1822 396.46 1664 305.24 1506 396.46 1506 578.9 1664 670.12 1822 578.9 1822 396.46"/><polygon id="_YOUR_IMAGE_HERE_-9" class="cls-2" points="2767 322.46 2609 231.24 2451 322.46 2451 504.9 2609 596.12 2767 504.9 2767 322.46"/><polygon id="_YOUR_IMAGE_HERE_-10" class="cls-2" points="2934 618.46 2776 527.24 2618 618.46 2618 800.9 2776 892.12 2934 800.9 2934 618.46"/><polygon id="_YOUR_IMAGE_HERE_-11" class="cls-2" points="3360 618.46 3202 527.24 3044 618.46 3044 800.9 3202 892.12 3360 800.9 3360 618.46"/><polygon id="_YOUR_IMAGE_HERE_-12" class="cls-1" points="3104 322.46 2946 231.24 2788 322.46 2788 504.9 2946 596.12 3104 504.9 3104 322.46"/><polygon id="_YOUR_IMAGE_HERE_-13" class="cls-3" points="2421.63 394.73 2152.32 239.24 1883 394.73 1883 705.71 2152.32 861.2 2421.63 705.71 2421.63 394.73"/></g></g></svg>