<svg width="13358" height="10771" viewBox="0 0 13358 10771" fill="none" xmlns="http://www.w3.org/2000/svg">
<path d="M8109.5 2875.54L8171.74 2851.85L8232.61 2875.54L8171.74 2899.23L8109.5 2875.54Z" fill="#D9D9D9"/>
<path d="M8171.44 2802.93L8191.27 2877.28L8171.44 2950L8151.61 2877.28L8171.44 2802.93Z" fill="#D9D9D9"/>
<path d="M2917.5 7597.54L2979.74 7573.85L3040.61 7597.54L2979.74 7621.23L2917.5 7597.54Z" fill="#D9D9D9"/>
<path d="M2979.44 7524.92L2999.27 7599.28L2979.44 7672L2959.61 7599.28L2979.44 7524.92Z" fill="#D9D9D9"/>
<path d="M5684 4999.5L5764.39 4973.89L5843 4999.5L5764.39 5025.11L5684 4999.5Z" fill="#D9D9D9"/>
<path d="M5764 4921L5789.61 5001.39L5764 5080L5738.39 5001.39L5764 4921Z" fill="#D9D9D9"/>
<path d="M492 9721.5L572.387 9695.89L651 9721.5L572.387 9747.11L492 9721.5Z" fill="#D9D9D9"/>
<path d="M572 9643L597.609 9723.39L572 9802L546.391 9723.39L572 9643Z" fill="#D9D9D9"/>
<path d="M8726 3315.19L8858.05 3273.57L8987.18 3315.19L8858.05 3356.8L8726 3315.19Z" fill="#D9D9D9"/>
<path d="M8857.41 3187.62L8899.48 3318.25L8857.41 3446L8815.34 3318.25L8857.41 3187.62Z" fill="#D9D9D9"/>
<path d="M3534 8037.19L3666.05 7995.57L3795.18 8037.19L3666.05 8078.8L3534 8037.19Z" fill="#D9D9D9"/>
<path d="M3665.41 7909.62L3707.48 8040.25L3665.41 8168L3623.34 8040.25L3665.41 7909.62Z" fill="#D9D9D9"/>
<path d="M7235 1021.5L7315.39 995.891L7394 1021.5L7315.39 1047.11L7235 1021.5Z" fill="#D9D9D9"/>
<path d="M7315 943L7340.61 1023.39L7315 1102L7289.39 1023.39L7315 943Z" fill="#D9D9D9"/>
<path d="M2043 5743.5L2123.39 5717.89L2202 5743.5L2123.39 5769.11L2043 5743.5Z" fill="#D9D9D9"/>
<path d="M2123 5665L2148.61 5745.39L2123 5824L2097.39 5745.39L2123 5665Z" fill="#D9D9D9"/>
<path d="M5192 1376.5L5272.39 1350.89L5351 1376.5L5272.39 1402.11L5192 1376.5Z" fill="#D9D9D9"/>
<path d="M5272 1298L5297.61 1378.39L5272 1457L5246.39 1378.39L5272 1298Z" fill="#D9D9D9"/>
<path d="M0 6098.5L80.3868 6072.89L159 6098.5L80.3868 6124.11L0 6098.5Z" fill="#D9D9D9"/>
<path d="M80 6020L105.609 6100.39L80 6179L54.391 6100.39L80 6020Z" fill="#D9D9D9"/>
<path d="M7314 4786.5L7394.39 4760.89L7473 4786.5L7394.39 4812.11L7314 4786.5Z" fill="#D9D9D9"/>
<path d="M7394 4708L7419.61 4788.39L7394 4867L7368.39 4788.39L7394 4708Z" fill="#D9D9D9"/>
<path d="M2122 9508.5L2202.39 9482.89L2281 9508.5L2202.39 9534.11L2122 9508.5Z" fill="#D9D9D9"/>
<path d="M2202 9430L2227.61 9510.39L2202 9589L2176.39 9510.39L2202 9430Z" fill="#D9D9D9"/>
<path d="M8987 2189L9001 2306.15L8987 2429L8972 2306.15L8987 2189Z" fill="#D9D9D9"/>
<path d="M9089 2310.42L8989.45 2327.5L8886 2310.42L8989.45 2290.5L9089 2310.42Z" fill="#D9D9D9"/>
<path d="M3795 6911L3809 7028.15L3795 7151L3780 7028.15L3795 6911Z" fill="#D9D9D9"/>
<path d="M3897 7032.42L3797.45 7049.5L3694 7032.42L3797.45 7012.5L3897 7032.42Z" fill="#D9D9D9"/>
<path d="M6730 1822L6744 1939.15L6730 2062L6715 1939.15L6730 1822Z" fill="#D9D9D9"/>
<path d="M6832 1943.42L6732.45 1960.5L6629 1943.42L6732.45 1923.5L6832 1943.42Z" fill="#D9D9D9"/>
<path d="M8014.5 1519L8039.18 1725.48L8014.5 1942L7988.06 1725.48L8014.5 1519Z" fill="#D9D9D9"/>
<path d="M8194.28 1733L8018.82 1763.11L7836.49 1733L8018.82 1697.89L8194.28 1733Z" fill="#D9D9D9"/>
<path d="M7593 3326L7607 3443.15L7593 3566L7578 3443.15L7593 3326Z" fill="#D9D9D9"/>
<path d="M7695 3447.42L7595.45 3464.5L7492 3447.42L7595.45 3427.5L7695 3447.42Z" fill="#D9D9D9"/>
<path d="M10264 821L10278 938.15L10264 1061L10249 938.15L10264 821Z" fill="#D9D9D9"/>
<path d="M10366 942.419L10266.5 959.5L10163 942.42L10266.5 922.5L10366 942.419Z" fill="#D9D9D9"/>
<path d="M8766 4959L8780 5076.15L8766 5199L8751 5076.15L8766 4959Z" fill="#D9D9D9"/>
<path d="M8868 5080.42L8768.45 5097.5L8665 5080.42L8768.45 5060.5L8868 5080.42Z" fill="#D9D9D9"/>
<path d="M6134 3840L6148 3957.15L6134 4080L6119 3957.15L6134 3840Z" fill="#D9D9D9"/>
<path d="M6236 3961.42L6136.45 3978.5L6033 3961.42L6136.45 3941.5L6236 3961.42Z" fill="#D9D9D9"/>
<path d="M6254 2643L6268 2760.15L6254 2883L6239 2760.15L6254 2643Z" fill="#D9D9D9"/>
<path d="M6356 2764.42L6256.45 2781.5L6153 2764.42L6256.45 2744.5L6356 2764.42Z" fill="#D9D9D9"/>
<path d="M10162 4666L10176 4783.15L10162 4906L10147 4783.15L10162 4666Z" fill="#D9D9D9"/>
<path d="M10264 4787.42L10164.5 4804.5L10061 4787.42L10164.5 4767.5L10264 4787.42Z" fill="#D9D9D9"/>
<path d="M7326 7394L7340 7511.15L7326 7634L7311 7511.15L7326 7394Z" fill="#D9D9D9"/>
<path d="M7428 7515.42L7328.45 7532.5L7225 7515.42L7328.45 7495.5L7428 7515.42Z" fill="#D9D9D9"/>
<path d="M8610.5 7091L8635.18 7297.48L8610.5 7514L8584.06 7297.48L8610.5 7091Z" fill="#D9D9D9"/>
<path d="M8790.28 7305L8614.82 7335.11L8432.49 7305L8614.82 7269.89L8790.28 7305Z" fill="#D9D9D9"/>
<path d="M8189 8898L8203 9015.15L8189 9138L8174 9015.15L8189 8898Z" fill="#D9D9D9"/>
<path d="M8291 9019.42L8191.45 9036.5L8088 9019.42L8191.45 8999.5L8291 9019.42Z" fill="#D9D9D9"/>
<path d="M10860 6393L10874 6510.15L10860 6633L10845 6510.15L10860 6393Z" fill="#D9D9D9"/>
<path d="M10962 6514.42L10862.5 6531.5L10759 6514.42L10862.5 6494.5L10962 6514.42Z" fill="#D9D9D9"/>
<path d="M9362 10531L9376 10648.2L9362 10771L9347 10648.2L9362 10531Z" fill="#D9D9D9"/>
<path d="M9464 10652.4L9364.45 10669.5L9261 10652.4L9364.45 10632.5L9464 10652.4Z" fill="#D9D9D9"/>
<path d="M6730 9412L6744 9529.15L6730 9652L6715 9529.15L6730 9412Z" fill="#D9D9D9"/>
<path d="M6832 9533.42L6732.45 9550.5L6629 9533.42L6732.45 9513.5L6832 9533.42Z" fill="#D9D9D9"/>
<path d="M6850 8215L6864 8332.15L6850 8455L6835 8332.15L6850 8215Z" fill="#D9D9D9"/>
<path d="M6952 8336.42L6852.45 8353.5L6749 8336.42L6852.45 8316.5L6952 8336.42Z" fill="#D9D9D9"/>
<path d="M10758 10238L10772 10355.2L10758 10478L10743 10355.2L10758 10238Z" fill="#D9D9D9"/>
<path d="M10860 10359.4L10760.5 10376.5L10657 10359.4L10760.5 10339.5L10860 10359.4Z" fill="#D9D9D9"/>
<path d="M1175 1001L1189 1118.15L1175 1241L1160 1118.15L1175 1001Z" fill="#D9D9D9"/>
<path d="M1277 1122.42L1177.45 1139.5L1074 1122.42L1177.45 1102.5L1277 1122.42Z" fill="#D9D9D9"/>
<path d="M2459.5 698L2484.18 904.477L2459.5 1121L2433.06 904.477L2459.5 698Z" fill="#D9D9D9"/>
<path d="M2639.27 912.002L2463.82 942.106L2281.49 912.002L2463.82 876.894L2639.27 912.002Z" fill="#D9D9D9"/>
<path d="M2038 2505L2052 2622.15L2038 2745L2023 2622.15L2038 2505Z" fill="#D9D9D9"/>
<path d="M2140 2626.42L2040.45 2643.5L1937 2626.42L2040.45 2606.5L2140 2626.42Z" fill="#D9D9D9"/>
<path d="M4709 0L4723 117.15L4709 240L4694 117.15L4709 0Z" fill="#D9D9D9"/>
<path d="M4811 121.419L4711.45 138.5L4608 121.42L4711.45 101.5L4811 121.419Z" fill="#D9D9D9"/>
<path d="M3211 4138L3225 4255.15L3211 4378L3196 4255.15L3211 4138Z" fill="#D9D9D9"/>
<path d="M3313 4259.42L3213.45 4276.5L3110 4259.42L3213.45 4239.5L3313 4259.42Z" fill="#D9D9D9"/>
<path d="M579 3019L593 3136.15L579 3259L564 3136.15L579 3019Z" fill="#D9D9D9"/>
<path d="M681 3140.42L581.453 3157.5L478 3140.42L581.453 3120.5L681 3140.42Z" fill="#D9D9D9"/>
<path d="M699 1822L713 1939.15L699 2062L684 1939.15L699 1822Z" fill="#D9D9D9"/>
<path d="M801 1943.42L701.453 1960.5L598 1943.42L701.453 1923.5L801 1943.42Z" fill="#D9D9D9"/>
<path d="M4607 3845L4621 3962.15L4607 4085L4592 3962.15L4607 3845Z" fill="#D9D9D9"/>
<path d="M4709 3966.42L4609.45 3983.5L4506 3966.42L4609.45 3946.5L4709 3966.42Z" fill="#D9D9D9"/>
<path d="M1538 6544L1552 6661.15L1538 6784L1523 6661.15L1538 6544Z" fill="#D9D9D9"/>
<path d="M1640 6665.42L1540.45 6682.5L1437 6665.42L1540.45 6645.5L1640 6665.42Z" fill="#D9D9D9"/>
<path d="M2822.5 6241L2847.18 6447.48L2822.5 6664L2796.06 6447.48L2822.5 6241Z" fill="#D9D9D9"/>
<path d="M3002.27 6455L2826.82 6485.11L2644.49 6455L2826.82 6419.89L3002.27 6455Z" fill="#D9D9D9"/>
<path d="M2401 8048L2415 8165.15L2401 8288L2386 8165.15L2401 8048Z" fill="#D9D9D9"/>
<path d="M2503 8169.42L2403.45 8186.5L2300 8169.42L2403.45 8149.5L2503 8169.42Z" fill="#D9D9D9"/>
<path d="M5072 5543L5086 5660.15L5072 5783L5057 5660.15L5072 5543Z" fill="#D9D9D9"/>
<path d="M5174 5664.42L5074.45 5681.5L4971 5664.42L5074.45 5644.5L5174 5664.42Z" fill="#D9D9D9"/>
<path d="M3574 9681L3588 9798.15L3574 9921L3559 9798.15L3574 9681Z" fill="#D9D9D9"/>
<path d="M3676 9802.42L3576.45 9819.5L3473 9802.42L3576.45 9782.5L3676 9802.42Z" fill="#D9D9D9"/>
<path d="M942 8562L956 8679.15L942 8802L927 8679.15L942 8562Z" fill="#D9D9D9"/>
<path d="M1044 8683.42L944.453 8700.5L841 8683.42L944.453 8663.5L1044 8683.42Z" fill="#D9D9D9"/>
<path d="M1062 7365L1076 7482.15L1062 7605L1047 7482.15L1062 7365Z" fill="#D9D9D9"/>
<path d="M1164 7486.42L1064.45 7503.5L961 7486.42L1064.45 7466.5L1164 7486.42Z" fill="#D9D9D9"/>
<path d="M4970 9388L4984 9505.15L4970 9628L4955 9505.15L4970 9388Z" fill="#D9D9D9"/>
<path d="M5072 9509.42L4972.45 9526.5L4869 9509.42L4972.45 9489.5L5072 9509.42Z" fill="#D9D9D9"/>
<path d="M9704 3078L9718 3195.15L9704 3318L9689 3195.15L9704 3078Z" fill="#D9D9D9"/>
<path d="M9806 3199.42L9706.45 3216.5L9603 3199.42L9706.45 3179.5L9806 3199.42Z" fill="#D9D9D9"/>
<path d="M10988.5 2775L11013.2 2981.48L10988.5 3198L10962.1 2981.48L10988.5 2775Z" fill="#D9D9D9"/>
<path d="M11168.3 2989L10992.8 3019.11L10810.5 2989L10992.8 2953.89L11168.3 2989Z" fill="#D9D9D9"/>
<path d="M10567 4582L10581 4699.15L10567 4822L10552 4699.15L10567 4582Z" fill="#D9D9D9"/>
<path d="M10669 4703.42L10569.5 4720.5L10466 4703.42L10569.5 4683.5L10669 4703.42Z" fill="#D9D9D9"/>
<path d="M13238 2077L13252 2194.15L13238 2317L13223 2194.15L13238 2077Z" fill="#D9D9D9"/>
<path d="M13340 2198.42L13240.5 2215.5L13137 2198.42L13240.5 2178.5L13340 2198.42Z" fill="#D9D9D9"/>
<path d="M11740 6215L11754 6332.15L11740 6455L11725 6332.15L11740 6215Z" fill="#D9D9D9"/>
<path d="M11842 6336.42L11742.5 6353.5L11639 6336.42L11742.5 6316.5L11842 6336.42Z" fill="#D9D9D9"/>
<path d="M9108 5096L9122 5213.15L9108 5336L9093 5213.15L9108 5096Z" fill="#D9D9D9"/>
<path d="M9210 5217.42L9110.45 5234.5L9007 5217.42L9110.45 5197.5L9210 5217.42Z" fill="#D9D9D9"/>
<path d="M9228 3899L9242 4016.15L9228 4139L9213 4016.15L9228 3899Z" fill="#D9D9D9"/>
<path d="M9330 4020.42L9230.45 4037.5L9127 4020.42L9230.45 4000.5L9330 4020.42Z" fill="#D9D9D9"/>
<path d="M13136 5922L13150 6039.15L13136 6162L13121 6039.15L13136 5922Z" fill="#D9D9D9"/>
<path d="M13238 6043.42L13138.5 6060.5L13035 6043.42L13138.5 6023.5L13238 6043.42Z" fill="#D9D9D9"/>
</svg>
